<svg width="88" height="90" viewBox="0 0 88 90" fill="none" xmlns="http://www.w3.org/2000/svg">
<path d="M29.7599 89.6546C34.4412 89.6546 39.1138 89.6546 43.7864 89.6546C44.4938 89.6546 44.7646 89.5061 44.7471 88.7812C44.6859 86.9035 44.7471 85.0169 44.7471 83.1392C44.7471 82.5191 44.6947 82.3095 43.9873 82.6239C42.5251 83.3078 40.909 83.5959 39.3005 83.4595C37.6921 83.3231 36.1476 82.7669 34.8215 81.8466C33.4954 80.9262 32.434 79.674 31.7435 78.2149C31.053 76.7558 30.7575 75.1411 30.8866 73.532C31.2796 67.235 38.2142 62.8332 43.9873 66.1345C44.5812 66.4751 44.8606 66.545 44.7995 65.7066C44.7587 63.7094 44.7587 61.7094 44.7995 59.7065C44.7995 58.9903 44.6248 58.7457 43.8737 58.7545C40.9042 58.7982 37.9347 58.7545 34.9653 58.7545C34.0919 58.7545 33.2185 58.6671 32.843 57.7064C32.4674 56.7457 32.9565 56.1082 33.6115 55.4706C34.5998 54.5136 35.2402 53.254 35.4312 51.8916C35.6221 50.5292 35.3526 49.1421 34.6654 47.9503C33.9782 46.7585 32.9127 45.8303 31.638 45.313C30.3632 44.7957 28.9522 44.7189 27.6289 45.0949C26.3162 45.4691 25.1645 46.2678 24.3538 47.366C23.5432 48.4642 23.1193 49.8001 23.1485 51.1648C23.1592 51.9894 23.3401 52.8028 23.6798 53.5542C24.0194 54.3056 24.5105 54.9788 25.1223 55.5317C25.4842 55.7413 25.7589 56.0737 25.8965 56.4686C26.0341 56.8635 26.0254 57.2946 25.8721 57.6837C25.7188 58.0727 25.431 58.3939 25.0611 58.5888C24.6911 58.7837 24.2635 58.8394 23.8559 58.7458C20.8253 58.7458 17.7947 58.7458 14.764 58.7458C14.0828 58.7458 13.8907 58.9292 13.8907 59.6191C13.8907 62.676 13.8907 65.7328 13.8907 68.7896C13.8907 69.9337 13.4365 70.6062 12.5544 70.7984C12.2052 70.8546 11.8473 70.8115 11.5215 70.674C11.1956 70.5366 10.915 70.3103 10.7116 70.0211C9.87616 69.1163 8.78929 68.4819 7.59061 68.1995C6.39193 67.9172 5.13619 67.9997 3.98475 68.4364C2.83332 68.8732 1.83879 69.6443 1.12896 70.6506C0.419123 71.657 0.0264132 72.8526 0.00128598 74.0838C-0.0238413 75.315 0.319762 76.5257 0.987947 77.5601C1.65613 78.5946 2.61838 79.4056 3.75103 79.889C4.88368 80.3724 6.13501 80.5061 7.34421 80.2728C8.55342 80.0396 9.66526 79.4501 10.5369 78.5802C10.7986 78.2923 11.0915 78.0346 11.4103 77.8116C11.6641 77.6598 11.9537 77.5783 12.2495 77.5753C12.5452 77.5724 12.8364 77.6481 13.0933 77.7947C13.3501 77.9414 13.5634 78.1537 13.7112 78.4099C13.8589 78.666 13.936 78.9569 13.9343 79.2527C14.0042 80.3444 13.9343 81.4274 13.9343 82.5191C13.9343 84.2659 13.9343 85.934 13.9343 87.6371C13.9343 89.1568 14.4321 89.6546 15.9431 89.6546H29.7599Z" fill="#589044"/>
<path d="M21.1296 55.6677C19.2169 50.2965 20.0554 46.3662 23.6275 43.6413C25.1779 42.4508 27.0661 41.7831 29.0202 41.7345C30.9743 41.6858 32.8934 42.2587 34.5011 43.3706C36.4241 44.6719 37.777 46.659 38.2828 48.9253C38.7875 51.216 38.443 53.612 37.3133 55.6677C39.6889 55.6677 41.9422 55.6677 44.1956 55.6677C44.8331 55.6677 44.7108 55.2398 44.7108 54.8817V46.4973C44.7108 46.2614 44.7108 46.0344 44.7108 45.7986C44.6672 44.9252 44.8244 44.0518 45.7938 43.6937C46.1874 43.5666 46.6117 43.5712 47.0025 43.7067C47.3933 43.8423 47.7294 44.1013 47.9598 44.4448C48.8903 45.4441 50.1286 46.1031 51.4772 46.3168C52.8258 46.5305 54.2071 46.2865 55.401 45.6239C56.5854 44.9778 57.5257 43.9615 58.0779 42.7304C58.6301 41.4994 58.764 40.1214 58.4589 38.8071C58.1539 37.4928 57.4267 36.3146 56.3887 35.4527C55.3507 34.5907 54.059 34.0925 52.711 34.0342C51.7826 33.9867 50.8556 34.1517 50.0005 34.5164C49.1454 34.8811 48.3848 35.4361 47.7764 36.139C47.632 36.3235 47.4519 36.4771 47.2469 36.5907C47.0419 36.7042 46.8161 36.7753 46.583 36.7997C46.35 36.8241 46.1144 36.8014 45.8903 36.733C45.6662 36.6645 45.4581 36.5516 45.2785 36.401C45.0693 36.193 44.9097 35.9405 44.8114 35.6623C44.7131 35.3841 44.6788 35.0873 44.7108 34.794C44.7108 31.7634 44.7108 28.7415 44.7108 25.7109C44.7108 24.9074 44.475 24.7414 43.7239 24.7501C40.7195 24.7501 37.7238 24.7501 34.7194 24.7501C34.4132 24.7886 34.1023 24.7584 33.8092 24.6617C33.5161 24.565 33.2483 24.4043 33.025 24.1912C32.3962 23.4925 32.5447 22.6453 33.4093 21.7981C34.3101 20.963 34.9413 19.8782 35.2223 18.6824C35.5033 17.4867 35.4212 16.2343 34.9867 15.0854C34.5521 13.9365 33.7847 12.9433 32.7827 12.2329C31.7806 11.5224 30.5895 11.1269 29.3615 11.097C28.1335 11.0672 26.9245 11.4042 25.8891 12.0651C24.8537 12.7259 24.0389 13.6806 23.549 14.807C23.059 15.9334 22.9161 17.1803 23.1386 18.3883C23.361 19.5963 23.9388 20.7106 24.7978 21.5885C25.0351 21.8054 25.2596 22.0358 25.4703 22.2785C25.6174 22.4726 25.715 22.6995 25.7549 22.9397C25.7947 23.18 25.7756 23.4263 25.6991 23.6575C25.6226 23.8886 25.4911 24.0978 25.3158 24.2668C25.1405 24.4359 24.9268 24.5598 24.693 24.6279C24.3244 24.7336 23.9403 24.7749 23.5576 24.7501H15.6972C14.2998 24.7501 13.7758 25.2567 13.7671 26.6628V54.8904C13.7671 55.2747 13.6972 55.659 14.3086 55.6503C16.5881 55.659 18.8152 55.6677 21.1296 55.6677Z" fill="#D2E6AF"/>
<path d="M78.6847 73.6784C78.6847 68.9971 78.6847 64.3245 78.6847 59.6519C78.6847 58.9008 78.4664 58.7087 77.7415 58.7262C75.9248 58.7786 74.0995 58.7698 72.2741 58.7262C71.5143 58.7262 71.3134 58.7873 71.6802 59.5995C72.2332 60.8141 72.5153 62.1345 72.5068 63.469C72.4984 64.8035 72.1996 66.1202 71.6312 67.3277C71.0628 68.5351 70.2384 69.6044 69.2153 70.4612C68.1921 71.3181 66.9948 71.942 65.7063 72.2897C64.0339 72.8205 62.2404 72.8353 60.5595 72.3321C58.8786 71.8289 57.3882 70.8311 56.2826 69.4687C55.0838 68.1717 54.2977 66.5476 54.024 64.8028C53.7503 63.058 54.0014 61.2712 54.7454 59.6694C55.1297 58.7262 55.1559 58.7349 54.1166 58.7349C52.2912 58.7349 50.4659 58.7349 48.6405 58.7349C47.968 58.7349 47.7671 58.8921 47.7671 59.6083C47.7671 62.6127 47.7671 65.6084 47.7671 68.6128C47.7671 68.8748 47.7671 69.1368 47.7671 69.4076C47.7209 69.7556 47.5776 70.0835 47.3536 70.3538C47.1296 70.6241 46.8341 70.8259 46.5007 70.936C45.837 71.2679 45.4614 70.936 45.0422 70.5779C44.0947 69.785 43.0462 69.1213 41.9242 68.6041C38.2997 66.8573 34.5005 69.9054 34.0027 73.067C33.7552 74.3769 33.9389 75.7317 34.5262 76.9283C35.1136 78.125 36.0729 79.0991 37.2604 79.7047C38.4576 80.3245 39.826 80.5312 41.1528 80.2927C42.4796 80.0542 43.6904 79.3838 44.5968 78.3859C44.8259 78.0591 45.1557 77.8164 45.5359 77.695C45.916 77.5735 46.3255 77.58 46.7016 77.7134C47.575 78.0715 47.7933 78.8226 47.7933 79.7134C47.7933 82.7703 47.7933 85.8271 47.7933 88.8926C47.7933 89.5127 47.9855 89.6787 48.5881 89.6787C58.0031 89.6787 67.4152 89.6787 76.8244 89.6787C78.2131 89.6787 78.7109 89.1459 78.7109 87.7311L78.6847 73.6784Z" fill="#D2E6AF"/>
<path d="M56.3309 23.7122C56.3309 25.9393 56.3309 28.1926 56.3309 30.446C56.3309 31.101 56.7676 30.9438 57.1169 30.9438H66.3747C66.7532 30.9104 67.134 30.9704 67.4839 31.1184C67.7406 31.2485 67.9598 31.4419 68.1211 31.6801C68.2823 31.9184 68.3803 32.1939 68.4056 32.4805C68.4309 32.7671 68.3829 33.0555 68.2659 33.3183C68.149 33.5812 67.967 33.81 67.7372 33.9831C66.8054 34.7874 66.1345 35.8511 65.8101 37.0385C65.4857 38.2259 65.5224 39.483 65.9158 40.6493C66.3091 41.8157 67.0411 42.8383 68.0183 43.5867C68.9955 44.3351 70.1736 44.7753 71.4022 44.8511C72.6307 44.9269 73.854 44.6348 74.9157 44.0122C75.9775 43.3895 76.8296 42.4646 77.3633 41.3554C77.897 40.2462 78.088 39.0032 77.9119 37.7849C77.7359 36.5667 77.2008 35.4286 76.3749 34.5159C76.2609 34.38 76.1352 34.2544 75.9993 34.1403C75.6448 33.921 75.3804 33.5822 75.2538 33.1849C75.1273 32.7877 75.147 32.3583 75.3094 31.9744C75.474 31.6087 75.7556 31.3081 76.1097 31.12C76.4639 30.9318 76.8706 30.8668 77.2658 30.935C80.2876 30.935 83.3183 30.935 86.3489 30.935C87.0039 30.935 87.2223 30.8215 87.2223 30.0617C87.2223 20.6816 87.2223 11.3015 87.2223 1.92143C87.2223 0.51529 86.707 0.00873378 85.3096 0C75.9411 0 66.564 0 57.1781 0C56.4794 0 56.3047 0.192143 56.3047 0.873378C56.3047 2.72494 56.3571 4.58523 56.3047 6.43679C56.3047 7.22283 56.392 7.36257 57.1781 7.00449C58.4051 6.44356 59.7404 6.1592 61.0895 6.17154C62.4386 6.18388 63.7685 6.49262 64.9851 7.0759C66.2016 7.65919 67.2751 8.50275 68.1295 9.54689C68.9839 10.591 69.5984 11.8102 69.9294 13.1181C70.4216 14.7849 70.408 16.5602 69.8902 18.2192C69.3725 19.8782 68.3739 21.3462 67.021 22.4371C65.7267 23.6163 64.1139 24.3884 62.3837 24.6571C60.6536 24.9258 58.8826 24.6792 57.2916 23.948L56.4881 23.6161C56.4881 23.6161 56.4357 23.6685 56.3309 23.7122Z" fill="#589044"/>
</svg>
